<?xml version="1.0" encoding="utf-8"?>
<!-- Generator: Adobe Illustrator 25.2.1, SVG Export Plug-In . SVG Version: 6.00 Build 0)  -->
<svg version="1.1" id="Layer_1" xmlns="http://www.w3.org/2000/svg" xmlns:xlink="http://www.w3.org/1999/xlink" x="0px" y="0px"
	 viewBox="0 0 500 500" style="enable-background:new 0 0 500 500;" xml:space="preserve">
<style type="text/css">
	.st0{fill:none;}
	.st1{fill:#003057;}
	.st2{fill:#00A7EA;}
	.st3{fill:#051C2C;}
	.st4{fill:#8C9091;}
	.st5{fill:#D0B787;}
	.st6{fill:#1E43E7;}
	.st7{fill:#FF8CC5;}
	.st8{fill:#D6D1CA;}
	.st9{fill:#0040EC;}
	.st10{fill:#FF3E59;}
	.st11{fill:#00AC66;}
	.st12{fill:#002154;}
	.st13{fill:#6BC4E8;}
	.st14{fill:#ECE8E5;}
	.st15{fill:none;stroke:#3C7DBD;stroke-width:1.2;stroke-linecap:round;stroke-miterlimit:10;}
	.st16{fill:none;stroke:#3C7DBD;stroke-width:1.25;stroke-linecap:round;stroke-miterlimit:10;}
	.st17{fill:none;stroke:#3C7DBD;stroke-width:2;stroke-linecap:round;stroke-miterlimit:10;}
	.st18{fill:none;stroke:#3C7DBD;stroke-width:2.07;stroke-linecap:round;stroke-miterlimit:10;}
	.st19{fill:none;stroke:#3C7DBD;stroke-width:1.75;stroke-linecap:round;stroke-miterlimit:10;}
	.st20{fill:#3C7DBD;}
	.st21{fill:none;stroke:#3C7DBD;stroke-width:1.5;stroke-linecap:round;stroke-miterlimit:10;}
	.st22{fill:none;stroke:#3C7DBD;stroke-width:1.5;stroke-miterlimit:10;}
	.st23{fill:none;stroke:#3C7DBD;stroke-width:1.75;stroke-miterlimit:10;}
	.st24{fill:none;stroke:#3C7DBD;stroke-linecap:round;stroke-miterlimit:10;}
	.st25{clip-path:url(#SVGID_2_);fill:#3C7DBD;}
	.st26{clip-path:url(#SVGID_4_);fill:#3C7DBD;}
	.st27{clip-path:url(#SVGID_6_);fill:#3C7DBD;}
	.st28{fill:#3C7EBF;}
	.st29{fill:none;stroke:#3C7DBD;stroke-width:2.65;stroke-linecap:round;stroke-linejoin:round;}
	.st30{clip-path:url(#SVGID_8_);fill:#3C7DBD;}
	.st31{fill:none;stroke:#3C7DBD;stroke-width:2;stroke-linecap:round;stroke-linejoin:round;stroke-miterlimit:10;}
	.st32{clip-path:url(#SVGID_10_);fill:#3C7DBD;}
	.st33{fill:#FF0000;}
	.st34{fill:#3C7DBD;stroke:#3C7DBD;stroke-width:0.5;stroke-miterlimit:10;}
	.st35{fill:#073352;}
	.st36{fill:#FF4351;}
	.st37{fill:#D9B785;}
	.st38{fill:#FFFFFF;}
	.st39{fill:#1E43E7;stroke:#1E43E7;stroke-width:10;stroke-miterlimit:10;}
	.st40{fill:#FF8CC5;stroke:#FF8CC5;stroke-width:10;stroke-miterlimit:10;}
	.st41{fill:#FF8CC5;stroke:#FF8CC5;stroke-width:2;stroke-miterlimit:10;}
	.st42{fill:none;stroke:#1E43E7;stroke-width:6;stroke-linejoin:round;stroke-miterlimit:10;}
	.st43{fill:#1E43E7;stroke:#1E43E7;stroke-width:2;stroke-miterlimit:10;}
	.st44{fill:none;stroke:#1E43E7;stroke-width:6;stroke-miterlimit:10;}
	.st45{fill:none;stroke:#003057;stroke-width:16;stroke-linecap:round;stroke-linejoin:round;stroke-miterlimit:10;}
	.st46{fill:#003057;stroke:#003057;stroke-width:4;stroke-miterlimit:10;}
	.st47{fill:#00A7EA;stroke:#00A7EA;stroke-width:6;stroke-miterlimit:10;}
	.st48{fill:none;stroke:#003057;stroke-width:12;stroke-linecap:round;stroke-linejoin:round;stroke-miterlimit:10;}
	.st49{fill:#003057;stroke:#FFFFFF;stroke-width:42;stroke-miterlimit:10;}
</style>
<g>
	<g>
		<g>
			<path class="st2" d="M383.03,228.8v28c42.23,0,76.58,34.35,76.58,76.58c0,42.23-34.35,76.58-76.58,76.58v28
				c57.67,0,104.58-46.92,104.58-104.58S440.7,228.8,383.03,228.8z"/>
			<path class="st1" d="M306.45,333.38c0-42.23,34.35-76.58,76.58-76.58v-28c-57.67,0-104.58,46.91-104.58,104.58
				s46.91,104.58,104.58,104.58v-28C340.8,409.96,306.45,375.61,306.45,333.38z"/>
		</g>
	</g>
</g>
<g>
	<line class="st45" x1="383.03" y1="370.54" x2="383.03" y2="296.22"/>
	<polyline class="st45" points="402.09,315.28 383.03,296.22 363.96,315.28 	"/>
</g>
<g>
	<path class="st0" d="M262.85,296.94H64.43v39.75c0,2.33,1.9,4.23,4.23,4.23h189.02c-0.15-2.5-0.23-5.01-0.23-7.54
		C257.45,320.71,259.34,308.48,262.85,296.94z"/>
	<path class="st0" d="M431.34,143.08H68.66c-2.33,0-4.23,1.9-4.23,4.23v118.64h212.7c18.76-29.36,49.39-50.43,85.07-56.41
		c-0.9-0.21-1.57-1.02-1.57-1.98v-26.92c0-1.13,0.91-2.04,2.04-2.04h28.96c1.12,0,2.04,0.91,2.04,2.04v26.92
		c0,0.24-0.05,0.47-0.13,0.69c14.89,1.24,29.05,5.09,42.03,11.09v-72.03C435.57,144.98,433.67,143.08,431.34,143.08z"/>
	<path class="st2" d="M277.13,265.95H64.43v31h198.42C266.2,285.89,271.04,275.48,277.13,265.95z"/>
	<path class="st1" d="M68.66,340.92c-2.33,0-4.23-1.9-4.23-4.23v-39.75h-8.78c-5.62,0-10.19-0.91-10.19-2.04v-26.92
		c0-1.13,4.57-2.04,10.19-2.04h8.78V147.31c0-2.33,1.9-4.23,4.23-4.23h362.68c2.33,0,4.23,1.9,4.23,4.23v72.03
		c12.19,5.64,23.33,13.18,33.04,22.23v-94.26c0-20.55-16.72-37.27-37.27-37.27H68.66c-20.55,0-37.27,16.72-37.27,37.27v189.38
		c0,20.55,16.72,37.27,37.27,37.27h195.52c-3.58-10.46-5.81-21.55-6.5-33.04H68.66z"/>
	<path class="st1" d="M55.65,265.95c-5.62,0-10.19,0.91-10.19,2.04v26.92c0,1.12,4.57,2.04,10.19,2.04h8.78v-31H55.65z"/>
	<path class="st2" d="M393.54,208.24c0.08-0.22,0.13-0.45,0.13-0.69v-26.92c0-1.13-0.92-2.04-2.04-2.04h-28.96
		c-1.12,0-2.04,0.91-2.04,2.04v26.92c0,0.96,0.67,1.77,1.57,1.98c6.78-1.14,13.73-1.74,20.83-1.74
		C386.57,207.8,390.07,207.95,393.54,208.24z"/>
	<path class="st38" d="M391.63,209.59c0.88,0,1.63-0.57,1.91-1.35c-3.47-0.29-6.97-0.44-10.51-0.44c-7.09,0-14.05,0.6-20.83,1.74
		c0.15,0.04,0.31,0.06,0.47,0.06H391.63z"/>
</g>
</svg>
