<?xml version="1.0" encoding="utf-8"?>
<!-- Generator: Adobe Illustrator 25.2.1, SVG Export Plug-In . SVG Version: 6.00 Build 0)  -->
<svg version="1.1" id="Layer_1" xmlns="http://www.w3.org/2000/svg" xmlns:xlink="http://www.w3.org/1999/xlink" x="0px" y="0px"
	 viewBox="0 0 500 500" style="enable-background:new 0 0 500 500;" xml:space="preserve">
<style type="text/css">
	.st0{fill:#051C2C;}
	.st1{fill:#8C9091;}
	.st2{fill:#D0B787;}
	.st3{fill:#003057;}
	.st4{fill:#1E43E7;}
	.st5{fill:#FF8CC5;}
	.st6{fill:#D6D1CA;}
	.st7{fill:#0040EC;}
	.st8{fill:#00A7EA;}
	.st9{fill:#FF3E59;}
	.st10{fill:#00AC66;}
	.st11{fill:#002154;}
	.st12{fill:#6BC4E8;}
	.st13{fill:#ECE8E5;}
	.st14{fill:none;stroke:#3C7DBD;stroke-width:1.2;stroke-linecap:round;stroke-miterlimit:10;}
	.st15{fill:none;stroke:#3C7DBD;stroke-width:1.25;stroke-linecap:round;stroke-miterlimit:10;}
	.st16{fill:none;stroke:#3C7DBD;stroke-width:2;stroke-linecap:round;stroke-miterlimit:10;}
	.st17{fill:none;stroke:#3C7DBD;stroke-width:2.07;stroke-linecap:round;stroke-miterlimit:10;}
	.st18{fill:none;stroke:#3C7DBD;stroke-width:1.75;stroke-linecap:round;stroke-miterlimit:10;}
	.st19{fill:#3C7DBD;}
	.st20{fill:none;stroke:#3C7DBD;stroke-width:1.5;stroke-linecap:round;stroke-miterlimit:10;}
	.st21{fill:none;stroke:#3C7DBD;stroke-width:1.5;stroke-miterlimit:10;}
	.st22{fill:none;stroke:#3C7DBD;stroke-width:1.75;stroke-miterlimit:10;}
	.st23{fill:none;stroke:#3C7DBD;stroke-linecap:round;stroke-miterlimit:10;}
	.st24{fill:none;}
	.st25{clip-path:url(#SVGID_2_);fill:#3C7DBD;}
	.st26{clip-path:url(#SVGID_4_);fill:#3C7DBD;}
	.st27{clip-path:url(#SVGID_6_);fill:#3C7DBD;}
	.st28{fill:#3C7EBF;}
	.st29{fill:none;stroke:#3C7DBD;stroke-width:2.65;stroke-linecap:round;stroke-linejoin:round;}
	.st30{clip-path:url(#SVGID_8_);fill:#3C7DBD;}
	.st31{fill:none;stroke:#3C7DBD;stroke-width:2;stroke-linecap:round;stroke-linejoin:round;stroke-miterlimit:10;}
	.st32{clip-path:url(#SVGID_10_);fill:#3C7DBD;}
	.st33{fill:#FF0000;}
	.st34{fill:#3C7DBD;stroke:#3C7DBD;stroke-width:0.5;stroke-miterlimit:10;}
	.st35{fill:#073352;}
	.st36{fill:#FF4351;}
	.st37{fill:#D9B785;}
	.st38{fill:#FFFFFF;}
	.st39{fill:#1E43E7;stroke:#1E43E7;stroke-width:10;stroke-miterlimit:10;}
	.st40{fill:#FF8CC5;stroke:#FF8CC5;stroke-width:10;stroke-miterlimit:10;}
	.st41{fill:#FF8CC5;stroke:#FF8CC5;stroke-width:2;stroke-miterlimit:10;}
	.st42{fill:none;stroke:#1E43E7;stroke-width:6;stroke-linejoin:round;stroke-miterlimit:10;}
	.st43{fill:#1E43E7;stroke:#1E43E7;stroke-width:2;stroke-miterlimit:10;}
	.st44{fill:none;stroke:#1E43E7;stroke-width:6;stroke-miterlimit:10;}
	.st45{fill:#003057;stroke:#003057;stroke-width:4;stroke-miterlimit:10;}
	.st46{fill:#00A7EA;stroke:#00A7EA;stroke-width:6;stroke-miterlimit:10;}
</style>
<g>
	<path class="st8" d="M460.83,293.39h-27.96v-171.5h43.03c7.93,0,14.39,6.45,14.39,14.39s-6.45,14.39-14.39,14.39h-14.28
		L460.83,293.39z M438.87,287.39h16l0.79-142.73h20.25c4.62,0,8.39-3.76,8.39-8.39s-3.76-8.39-8.39-8.39h-37.03V287.39z"/>
	<g>
		<path class="st8" d="M475.9,124.89h-40.03v165.5h21.98l0.79-142.73h17.26c6.29,0,11.39-5.1,11.39-11.39
			S482.19,124.89,475.9,124.89z"/>
		<path class="st8" d="M9.71,136.28c0,7.93,6.45,14.39,14.39,14.39h14.28l0.79,142.73h27.96v-171.5H24.09
			C16.16,121.89,9.71,128.34,9.71,136.28z"/>
	</g>
	<g>
		<path class="st8" d="M250.01,252.94c-29.08,0-52.73,23.65-52.73,52.73v3h3c11.86,0,23-6.07,29.78-16.25
			c4.47-6.71,11.93-10.71,19.95-10.71c8.02,0,15.48,4,19.95,10.71c6.78,10.17,17.91,16.25,29.78,16.25h3v-3
			C302.74,276.59,279.08,252.94,250.01,252.94z"/>
		<g>
			<path class="st3" d="M135.41,198.66v-0.25h-9.83l-3,0.09v0.16c-22.13,1.57-42.71,11.19-58.24,27.28
				c-16.24,16.84-25.19,38.97-25.19,62.31c0,23.34,8.95,45.47,25.19,62.31c15.53,16.1,36.11,25.72,58.24,27.28v0.25h9.83l3-0.09
				v-0.16c22.13-1.57,42.71-11.19,58.24-27.28c16.24-16.84,25.19-38.97,25.19-62.31c0-23.34-8.95-45.47-25.19-62.32
				C178.13,209.85,157.54,200.23,135.41,198.66z M190.86,288.39c0,34.11-27.75,61.87-61.87,61.87s-61.87-27.75-61.87-61.87
				c0-34.11,27.75-61.87,61.87-61.87S190.86,254.28,190.86,288.39z"/>
			<path class="st3" d="M435.66,225.95c-15.53-16.1-36.11-25.72-58.24-27.28v-0.25h-9.83l-3,0.09v0.16
				c-22.13,1.57-42.71,11.19-58.24,27.28c-16.24,16.84-25.19,38.97-25.19,62.31c0,23.34,8.95,45.47,25.19,62.31
				c15.53,16.1,36.11,25.72,58.24,27.28v0.25h9.83l3-0.09v-0.16c22.13-1.57,42.71-11.19,58.24-27.28
				c16.24-16.84,25.19-38.97,25.19-62.31C460.85,264.92,451.9,242.79,435.66,225.95z M432.87,288.39
				c0,34.11-27.75,61.87-61.87,61.87c-34.11,0-61.87-27.75-61.87-61.87c0-34.11,27.75-61.87,61.87-61.87
				C405.12,226.52,432.87,254.28,432.87,288.39z"/>
		</g>
	</g>
</g>
</svg>
