<?xml version="1.0" encoding="utf-8"?>
<!-- Generator: Adobe Illustrator 25.2.1, SVG Export Plug-In . SVG Version: 6.00 Build 0)  -->
<svg version="1.1" id="Layer_1" xmlns="http://www.w3.org/2000/svg" xmlns:xlink="http://www.w3.org/1999/xlink" x="0px" y="0px"
	 viewBox="0 0 500 500" style="enable-background:new 0 0 500 500;" xml:space="preserve">
<style type="text/css">
	.st0{fill:#051C2C;}
	.st1{fill:#8C9091;}
	.st2{fill:#D0B787;}
	.st3{fill:#003057;}
	.st4{fill:#1E43E7;}
	.st5{fill:#FF8CC5;}
	.st6{fill:#D6D1CA;}
	.st7{fill:#0040EC;}
	.st8{fill:#00A7EA;}
	.st9{fill:#FF3E59;}
	.st10{fill:#00AC66;}
	.st11{fill:#002154;}
	.st12{fill:#6BC4E8;}
	.st13{fill:#ECE8E5;}
	.st14{fill:none;stroke:#3C7DBD;stroke-width:1.2;stroke-linecap:round;stroke-miterlimit:10;}
	.st15{fill:none;stroke:#3C7DBD;stroke-width:1.25;stroke-linecap:round;stroke-miterlimit:10;}
	.st16{fill:none;stroke:#3C7DBD;stroke-width:2;stroke-linecap:round;stroke-miterlimit:10;}
	.st17{fill:none;stroke:#3C7DBD;stroke-width:2.07;stroke-linecap:round;stroke-miterlimit:10;}
	.st18{fill:none;stroke:#3C7DBD;stroke-width:1.75;stroke-linecap:round;stroke-miterlimit:10;}
	.st19{fill:#3C7DBD;}
	.st20{fill:none;stroke:#3C7DBD;stroke-width:1.5;stroke-linecap:round;stroke-miterlimit:10;}
	.st21{fill:none;stroke:#3C7DBD;stroke-width:1.5;stroke-miterlimit:10;}
	.st22{fill:none;stroke:#3C7DBD;stroke-width:1.75;stroke-miterlimit:10;}
	.st23{fill:none;stroke:#3C7DBD;stroke-linecap:round;stroke-miterlimit:10;}
	.st24{fill:none;}
	.st25{clip-path:url(#SVGID_2_);fill:#3C7DBD;}
	.st26{clip-path:url(#SVGID_4_);fill:#3C7DBD;}
	.st27{clip-path:url(#SVGID_6_);fill:#3C7DBD;}
	.st28{fill:#3C7EBF;}
	.st29{fill:none;stroke:#3C7DBD;stroke-width:2.65;stroke-linecap:round;stroke-linejoin:round;}
	.st30{clip-path:url(#SVGID_8_);fill:#3C7DBD;}
	.st31{fill:none;stroke:#3C7DBD;stroke-width:2;stroke-linecap:round;stroke-linejoin:round;stroke-miterlimit:10;}
	.st32{clip-path:url(#SVGID_10_);fill:#3C7DBD;}
	.st33{fill:#FF0000;}
	.st34{fill:#3C7DBD;stroke:#3C7DBD;stroke-width:0.5;stroke-miterlimit:10;}
	.st35{fill:#073352;}
	.st36{fill:#FF4351;}
	.st37{fill:#D9B785;}
	.st38{fill:#FFFFFF;}
	.st39{fill:#1E43E7;stroke:#1E43E7;stroke-width:10;stroke-miterlimit:10;}
	.st40{fill:#FF8CC5;stroke:#FF8CC5;stroke-width:10;stroke-miterlimit:10;}
	.st41{fill:#FF8CC5;stroke:#FF8CC5;stroke-width:2;stroke-miterlimit:10;}
	.st42{fill:none;stroke:#1E43E7;stroke-width:6;stroke-linejoin:round;stroke-miterlimit:10;}
	.st43{fill:#1E43E7;stroke:#1E43E7;stroke-width:2;stroke-miterlimit:10;}
	.st44{fill:none;stroke:#1E43E7;stroke-width:6;stroke-miterlimit:10;}
	.st45{fill:#003057;stroke:#003057;stroke-width:4;stroke-miterlimit:10;}
	.st46{fill:#00A7EA;stroke:#00A7EA;stroke-width:6;stroke-miterlimit:10;}
</style>
<g>
	<g>
		<g>
			<g>
				<g>
					<path class="st3" d="M442.58,115.09v168.07c0,17.45-14.2,31.65-31.65,31.65H89.07c-17.45,0-31.65-14.2-31.65-31.65V115.09
						c0-17.45,14.2-31.65,31.65-31.65h321.86C428.38,83.44,442.58,97.64,442.58,115.09z M83.9,283.16c0,2.85,2.32,5.17,5.17,5.17
						h321.86c2.85,0,5.17-2.32,5.17-5.17V115.09c0-2.85-2.32-5.17-5.17-5.17H89.07c-2.85,0-5.17,2.32-5.17,5.17V283.16z"/>
				</g>
			</g>
			<g>
				<g>
					<path class="st45" d="M321.09,155.82l12.57-11.39c-1.97-0.81-5.75-1.67-8.01-1.67l-150.88,0.28c-2.14,0-6.17,0.63-8.05,1.36
						l14.89,11.42H321.09z"/>
					<path class="st45" d="M330.03,238.03c0,2-1.62,3.61-3.61,3.61H173.81c-2,0-3.61-1.62-3.61-3.61v-81.28l-12.14-1.2
						c-0.08,0.65-0.43,4.35-0.43,5.01l-0.14,78.07c0,9.31,7.55,16.86,16.86,16.86h151.3c9.31,0,16.86-7.55,16.86-16.86v-79.01
						c0-0.57-0.19-3.51-0.24-4.07l-12.25,2.74V238.03z"/>
					<path class="st46" d="M333.66,144.43l-83.06,59.43l-83.89-59.46c-4.55,2.06-7.78,6.22-8.66,11.16l92.2,65.3
						c0.03,0.02,0.09,0.05,0.26,0.07h0.25c0.18-0.02,0.23-0.06,0.24-0.06l91.27-65.3C341.48,150.6,338.15,146.58,333.66,144.43z"/>
				</g>
			</g>
		</g>
		<g>
			<g>
				<g>
					<path class="st3" d="M490,357.44v32.64c0,14.63-11.86,26.49-26.49,26.49H36.49C21.86,416.56,10,404.7,10,390.07v-32.64
						c0-14.63,11.86-26.49,26.49-26.49h427.03C478.14,330.95,490,342.81,490,357.44z M36.49,357.44v32.64h427.03v-32.64H36.49z"/>
				</g>
			</g>
		</g>
	</g>
</g>
</svg>
