<?xml version="1.0" encoding="utf-8"?>
<!-- Generator: Adobe Illustrator 25.2.1, SVG Export Plug-In . SVG Version: 6.00 Build 0)  -->
<svg version="1.1" id="Layer_1" xmlns="http://www.w3.org/2000/svg" xmlns:xlink="http://www.w3.org/1999/xlink" x="0px" y="0px"
	 viewBox="0 0 500 500" style="enable-background:new 0 0 500 500;" xml:space="preserve">
<style type="text/css">
	.st0{fill:#051C2C;}
	.st1{fill:#8C9091;}
	.st2{fill:#D0B787;}
	.st3{fill:#003057;}
	.st4{fill:#1E43E7;}
	.st5{fill:#FF8CC5;}
	.st6{fill:#D6D1CA;}
	.st7{fill:#0040EC;}
	.st8{fill:#00A7EA;}
	.st9{fill:#FF3E59;}
	.st10{fill:#00AC66;}
	.st11{fill:#002154;}
	.st12{fill:#6BC4E8;}
	.st13{fill:#ECE8E5;}
	.st14{fill:none;stroke:#3C7DBD;stroke-width:1.2;stroke-linecap:round;stroke-miterlimit:10;}
	.st15{fill:none;stroke:#3C7DBD;stroke-width:1.25;stroke-linecap:round;stroke-miterlimit:10;}
	.st16{fill:none;stroke:#3C7DBD;stroke-width:2;stroke-linecap:round;stroke-miterlimit:10;}
	.st17{fill:none;stroke:#3C7DBD;stroke-width:2.07;stroke-linecap:round;stroke-miterlimit:10;}
	.st18{fill:none;stroke:#3C7DBD;stroke-width:1.75;stroke-linecap:round;stroke-miterlimit:10;}
	.st19{fill:#3C7DBD;}
	.st20{fill:none;stroke:#3C7DBD;stroke-width:1.5;stroke-linecap:round;stroke-miterlimit:10;}
	.st21{fill:none;stroke:#3C7DBD;stroke-width:1.5;stroke-miterlimit:10;}
	.st22{fill:none;stroke:#3C7DBD;stroke-width:1.75;stroke-miterlimit:10;}
	.st23{fill:none;stroke:#3C7DBD;stroke-linecap:round;stroke-miterlimit:10;}
	.st24{fill:none;}
	.st25{clip-path:url(#SVGID_2_);fill:#3C7DBD;}
	.st26{clip-path:url(#SVGID_4_);fill:#3C7DBD;}
	.st27{clip-path:url(#SVGID_6_);fill:#3C7DBD;}
	.st28{fill:#3C7EBF;}
	.st29{fill:none;stroke:#3C7DBD;stroke-width:2.65;stroke-linecap:round;stroke-linejoin:round;}
	.st30{clip-path:url(#SVGID_8_);fill:#3C7DBD;}
	.st31{fill:none;stroke:#3C7DBD;stroke-width:2;stroke-linecap:round;stroke-linejoin:round;stroke-miterlimit:10;}
	.st32{clip-path:url(#SVGID_10_);fill:#3C7DBD;}
	.st33{fill:#FF0000;}
	.st34{fill:#3C7DBD;stroke:#3C7DBD;stroke-width:0.5;stroke-miterlimit:10;}
	.st35{fill:#073352;}
	.st36{fill:#FF4351;}
	.st37{fill:#D9B785;}
	.st38{fill:#FFFFFF;}
	.st39{fill:#1E43E7;stroke:#1E43E7;stroke-width:10;stroke-miterlimit:10;}
	.st40{fill:#FF8CC5;stroke:#FF8CC5;stroke-width:10;stroke-miterlimit:10;}
	.st41{fill:#FF8CC5;stroke:#FF8CC5;stroke-width:2;stroke-miterlimit:10;}
	.st42{fill:none;stroke:#1E43E7;stroke-width:6;stroke-linejoin:round;stroke-miterlimit:10;}
	.st43{fill:#1E43E7;stroke:#1E43E7;stroke-width:2;stroke-miterlimit:10;}
	.st44{fill:none;stroke:#1E43E7;stroke-width:6;stroke-miterlimit:10;}
	.st45{fill:#003057;stroke:#003057;stroke-width:4;stroke-miterlimit:10;}
	.st46{fill:#00A7EA;stroke:#00A7EA;stroke-width:6;stroke-miterlimit:10;}
</style>
<g>
	<g>
		<g>
			<path class="st3" d="M354.72,490H145.28c-21.75,0-39.45-17.7-39.45-39.45V49.45c0-21.75,17.7-39.45,39.45-39.45h209.45
				c21.75,0,39.45,17.7,39.45,39.45v401.1C394.17,472.3,376.48,490,354.72,490z M145.28,43.01c-3.55,0-6.44,2.89-6.44,6.44v401.1
				c0,3.55,2.89,6.44,6.44,6.44h209.45c3.55,0,6.44-2.89,6.44-6.44V49.45c0-3.55-2.89-6.44-6.44-6.44H145.28z"/>
		</g>
	</g>
	<g>
		<g>
			<path class="st8" d="M250.47,234.1c-34.25,0-62.34-26.89-64.25-60.68c-0.11-1.99,1.43-3.68,3.42-3.68h26.25
				c1.75,0,3.21,1.33,3.39,3.08c1.55,15.85,14.95,28.27,31.2,28.27s29.65-12.42,31.2-28.27c0.17-1.75,1.63-3.08,3.39-3.08h26.25
				c1.99,0,3.53,1.69,3.42,3.68C312.81,207.21,284.72,234.1,250.47,234.1z"/>
		</g>
	</g>
	<g>
		<g>
			<path class="st3" d="M217.43,129.07h-26.17c-1.89,0-3.42-1.53-3.42-3.42V98.42c0-1.89,1.53-3.42,3.42-3.42h26.17
				c1.89,0,3.42,1.53,3.42,3.42v27.24C220.85,127.54,219.31,129.07,217.43,129.07z"/>
		</g>
	</g>
	<g>
		<g>
			<path class="st3" d="M261.38,421.31h-26.17c-1.89,0-3.42-1.53-3.42-3.42v-27.24c0-1.89,1.53-3.42,3.42-3.42h26.17
				c1.89,0,3.42,1.53,3.42,3.42v27.24C264.8,419.78,263.27,421.31,261.38,421.31z"/>
		</g>
	</g>
	<g>
		<g>
			<path class="st3" d="M309.78,129.07h-26.17c-1.89,0-3.42-1.53-3.42-3.42V98.42c0-1.89,1.53-3.42,3.42-3.42h26.17
				c1.89,0,3.42,1.53,3.42,3.42v27.24C313.2,127.54,311.67,129.07,309.78,129.07z"/>
		</g>
	</g>
</g>
</svg>
