<?xml version="1.0" encoding="utf-8"?>
<!-- Generator: Adobe Illustrator 25.2.1, SVG Export Plug-In . SVG Version: 6.00 Build 0)  -->
<svg version="1.1" id="Layer_1" xmlns="http://www.w3.org/2000/svg" xmlns:xlink="http://www.w3.org/1999/xlink" x="0px" y="0px"
	 viewBox="0 0 500 500" style="enable-background:new 0 0 500 500;" xml:space="preserve">
<style type="text/css">
	.st0{fill:#051C2C;}
	.st1{fill:#8C9091;}
	.st2{fill:#D0B787;}
	.st3{fill:#003057;}
	.st4{fill:#1E43E7;}
	.st5{fill:#FF8CC5;}
	.st6{fill:#D6D1CA;}
	.st7{fill:#0040EC;}
	.st8{fill:#00A7EA;}
	.st9{fill:#FF3E59;}
	.st10{fill:#00AC66;}
	.st11{fill:#002154;}
	.st12{fill:#6BC4E8;}
	.st13{fill:#ECE8E5;}
	.st14{fill:none;stroke:#3C7DBD;stroke-width:1.2;stroke-linecap:round;stroke-miterlimit:10;}
	.st15{fill:none;stroke:#3C7DBD;stroke-width:1.25;stroke-linecap:round;stroke-miterlimit:10;}
	.st16{fill:none;stroke:#3C7DBD;stroke-width:2;stroke-linecap:round;stroke-miterlimit:10;}
	.st17{fill:none;stroke:#3C7DBD;stroke-width:2.07;stroke-linecap:round;stroke-miterlimit:10;}
	.st18{fill:none;stroke:#3C7DBD;stroke-width:1.75;stroke-linecap:round;stroke-miterlimit:10;}
	.st19{fill:#3C7DBD;}
	.st20{fill:none;stroke:#3C7DBD;stroke-width:1.5;stroke-linecap:round;stroke-miterlimit:10;}
	.st21{fill:none;stroke:#3C7DBD;stroke-width:1.5;stroke-miterlimit:10;}
	.st22{fill:none;stroke:#3C7DBD;stroke-width:1.75;stroke-miterlimit:10;}
	.st23{fill:none;stroke:#3C7DBD;stroke-linecap:round;stroke-miterlimit:10;}
	.st24{fill:none;}
	.st25{clip-path:url(#SVGID_2_);fill:#3C7DBD;}
	.st26{clip-path:url(#SVGID_4_);fill:#3C7DBD;}
	.st27{clip-path:url(#SVGID_6_);fill:#3C7DBD;}
	.st28{fill:#3C7EBF;}
	.st29{fill:none;stroke:#3C7DBD;stroke-width:2.65;stroke-linecap:round;stroke-linejoin:round;}
	.st30{clip-path:url(#SVGID_8_);fill:#3C7DBD;}
	.st31{fill:none;stroke:#3C7DBD;stroke-width:2;stroke-linecap:round;stroke-linejoin:round;stroke-miterlimit:10;}
	.st32{clip-path:url(#SVGID_10_);fill:#3C7DBD;}
	.st33{fill:#FF0000;}
	.st34{fill:#3C7DBD;stroke:#3C7DBD;stroke-width:0.5;stroke-miterlimit:10;}
	.st35{fill:#073352;}
	.st36{fill:#FF4351;}
	.st37{fill:#D9B785;}
	.st38{fill:#FFFFFF;}
	.st39{fill:#1E43E7;stroke:#1E43E7;stroke-width:10;stroke-miterlimit:10;}
	.st40{fill:#FF8CC5;stroke:#FF8CC5;stroke-width:10;stroke-miterlimit:10;}
	.st41{fill:#FF8CC5;stroke:#FF8CC5;stroke-width:2;stroke-miterlimit:10;}
	.st42{fill:none;stroke:#1E43E7;stroke-width:6;stroke-linejoin:round;stroke-miterlimit:10;}
	.st43{fill:#1E43E7;stroke:#1E43E7;stroke-width:2;stroke-miterlimit:10;}
	.st44{fill:none;stroke:#1E43E7;stroke-width:6;stroke-miterlimit:10;}
	.st45{fill:#003057;stroke:#003057;stroke-width:4;stroke-miterlimit:10;}
	.st46{fill:#00A7EA;stroke:#00A7EA;stroke-width:6;stroke-miterlimit:10;}
</style>
<g>
	<g>
		<path class="st8" d="M435.57,296.94c5.62,0,10.19-0.91,10.19-2.04v-26.92c0-1.13-4.57-2.04-10.19-2.04H55.65
			c-5.62,0-10.19,0.91-10.19,2.04v26.92c0,1.12,4.57,2.04,10.19,2.04H435.57z"/>
		<path class="st3" d="M431.34,110.04H68.66c-20.55,0-37.27,16.72-37.27,37.27v189.38c0,20.55,16.72,37.27,37.27,37.27h362.68
			c20.55,0,37.27-16.72,37.27-37.27V147.31C468.61,126.76,451.89,110.04,431.34,110.04z M435.57,336.69c0,2.33-1.9,4.23-4.23,4.23
			H68.66c-2.33,0-4.23-1.9-4.23-4.23V147.31c0-2.33,1.9-4.23,4.23-4.23h362.68c2.33,0,4.23,1.9,4.23,4.23V336.69z"/>
		<path class="st8" d="M362.67,178.6c-1.12,0-2.04,0.91-2.04,2.04v26.92c0,1.12,0.91,2.04,2.04,2.04h28.96
			c1.12,0,2.04-0.91,2.04-2.04v-26.92c0-1.13-0.91-2.04-2.04-2.04H362.67z"/>
	</g>
	<g>
		<g>
			<circle class="st38" cx="383.03" cy="333.38" r="90.58"/>
			<g>
				<path class="st8" d="M383.03,228.8v28c42.23,0,76.58,34.35,76.58,76.58c0,42.23-34.35,76.58-76.58,76.58v28
					c57.67,0,104.58-46.92,104.58-104.58S440.7,228.8,383.03,228.8z"/>
				<path class="st3" d="M306.45,333.38c0-42.23,34.35-76.58,76.58-76.58v-28c-57.67,0-104.58,46.91-104.58,104.58
					s46.91,104.58,104.58,104.58v-28C340.8,409.96,306.45,375.61,306.45,333.38z"/>
			</g>
		</g>
		<g>
			<path class="st3" d="M367.53,369.76l-35.15-30.63c-0.7-0.61-0.77-1.67-0.16-2.37l13.43-15.41c0.61-0.7,1.67-0.77,2.37-0.16
				l18.97,16.53c1.29,1.12,3.23,1.01,4.38-0.26l44.84-49.4c0.62-0.69,1.69-0.74,2.37-0.11l15.13,13.74
				c0.69,0.62,0.74,1.69,0.11,2.37l-59.26,65.3C372.72,371.37,369.59,371.56,367.53,369.76z"/>
		</g>
	</g>
</g>
</svg>
