<?xml version="1.0" encoding="utf-8"?>
<!-- Generator: Adobe Illustrator 25.2.1, SVG Export Plug-In . SVG Version: 6.00 Build 0)  -->
<svg version="1.1" id="Layer_1" xmlns="http://www.w3.org/2000/svg" xmlns:xlink="http://www.w3.org/1999/xlink" x="0px" y="0px"
	 viewBox="0 0 500 500" style="enable-background:new 0 0 500 500;" xml:space="preserve">
<style type="text/css">
	.st0{fill:#051C2C;}
	.st1{fill:#8C9091;}
	.st2{fill:#D0B787;}
	.st3{fill:#003057;}
	.st4{fill:#1E43E7;}
	.st5{fill:#FF8CC5;}
	.st6{fill:#D6D1CA;}
	.st7{fill:#0040EC;}
	.st8{fill:#00A7EA;}
	.st9{fill:#FF3E59;}
	.st10{fill:#00AC66;}
	.st11{fill:#002154;}
	.st12{fill:#6BC4E8;}
	.st13{fill:#ECE8E5;}
	.st14{fill:none;stroke:#3C7DBD;stroke-width:1.2;stroke-linecap:round;stroke-miterlimit:10;}
	.st15{fill:none;stroke:#3C7DBD;stroke-width:1.25;stroke-linecap:round;stroke-miterlimit:10;}
	.st16{fill:none;stroke:#3C7DBD;stroke-width:2;stroke-linecap:round;stroke-miterlimit:10;}
	.st17{fill:none;stroke:#3C7DBD;stroke-width:2.07;stroke-linecap:round;stroke-miterlimit:10;}
	.st18{fill:none;stroke:#3C7DBD;stroke-width:1.75;stroke-linecap:round;stroke-miterlimit:10;}
	.st19{fill:#3C7DBD;}
	.st20{fill:none;stroke:#3C7DBD;stroke-width:1.5;stroke-linecap:round;stroke-miterlimit:10;}
	.st21{fill:none;stroke:#3C7DBD;stroke-width:1.5;stroke-miterlimit:10;}
	.st22{fill:none;stroke:#3C7DBD;stroke-width:1.75;stroke-miterlimit:10;}
	.st23{fill:none;stroke:#3C7DBD;stroke-linecap:round;stroke-miterlimit:10;}
	.st24{fill:none;}
	.st25{clip-path:url(#SVGID_2_);fill:#3C7DBD;}
	.st26{clip-path:url(#SVGID_4_);fill:#3C7DBD;}
	.st27{clip-path:url(#SVGID_6_);fill:#3C7DBD;}
	.st28{fill:#3C7EBF;}
	.st29{fill:none;stroke:#3C7DBD;stroke-width:2.65;stroke-linecap:round;stroke-linejoin:round;}
	.st30{clip-path:url(#SVGID_8_);fill:#3C7DBD;}
	.st31{fill:none;stroke:#3C7DBD;stroke-width:2;stroke-linecap:round;stroke-linejoin:round;stroke-miterlimit:10;}
	.st32{clip-path:url(#SVGID_10_);fill:#3C7DBD;}
	.st33{fill:#FF0000;}
	.st34{fill:#3C7DBD;stroke:#3C7DBD;stroke-width:0.5;stroke-miterlimit:10;}
	.st35{fill:#073352;}
	.st36{fill:#FF4351;}
	.st37{fill:#D9B785;}
	.st38{fill:#FFFFFF;}
	.st39{fill:#1E43E7;stroke:#1E43E7;stroke-width:10;stroke-miterlimit:10;}
	.st40{fill:#FF8CC5;stroke:#FF8CC5;stroke-width:10;stroke-miterlimit:10;}
	.st41{fill:#FF8CC5;stroke:#FF8CC5;stroke-width:2;stroke-miterlimit:10;}
	.st42{fill:none;stroke:#1E43E7;stroke-width:6;stroke-linejoin:round;stroke-miterlimit:10;}
	.st43{fill:#1E43E7;stroke:#1E43E7;stroke-width:2;stroke-miterlimit:10;}
	.st44{fill:none;stroke:#1E43E7;stroke-width:6;stroke-miterlimit:10;}
	.st45{fill:#003057;stroke:#003057;stroke-width:4;stroke-miterlimit:10;}
	.st46{fill:#00A7EA;stroke:#00A7EA;stroke-width:6;stroke-miterlimit:10;}
</style>
<g>
	<g>
		<path class="st8" d="M435.57,296.94c5.62,0,10.19-0.91,10.19-2.04v-26.92c0-1.13-4.57-2.04-10.19-2.04H55.65
			c-5.62,0-10.19,0.91-10.19,2.04v26.92c0,1.12,4.57,2.04,10.19,2.04H435.57z"/>
		<path class="st3" d="M431.34,110.04H68.66c-20.55,0-37.27,16.72-37.27,37.27v189.38c0,20.55,16.72,37.27,37.27,37.27h362.68
			c20.55,0,37.27-16.72,37.27-37.27V147.31C468.61,126.76,451.89,110.04,431.34,110.04z M435.57,336.69c0,2.33-1.9,4.23-4.23,4.23
			H68.66c-2.33,0-4.23-1.9-4.23-4.23V147.31c0-2.33,1.9-4.23,4.23-4.23h362.68c2.33,0,4.23,1.9,4.23,4.23V336.69z"/>
		<path class="st8" d="M362.67,178.6c-1.12,0-2.04,0.91-2.04,2.04v26.92c0,1.12,0.91,2.04,2.04,2.04h28.96
			c1.12,0,2.04-0.91,2.04-2.04v-26.92c0-1.13-0.91-2.04-2.04-2.04H362.67z"/>
	</g>
	<g>
		<g>
			<circle class="st38" cx="383.03" cy="333.38" r="90.58"/>
			<g>
				<path class="st8" d="M383.03,228.8v28c42.23,0,76.58,34.35,76.58,76.58c0,42.23-34.35,76.58-76.58,76.58v28
					c57.67,0,104.58-46.92,104.58-104.58S440.7,228.8,383.03,228.8z"/>
				<path class="st3" d="M306.45,333.38c0-42.23,34.35-76.58,76.58-76.58v-28c-57.67,0-104.58,46.91-104.58,104.58
					s46.91,104.58,104.58,104.58v-28C340.8,409.96,306.45,375.61,306.45,333.38z"/>
			</g>
		</g>
		<g>
			<path class="st3" d="M408.07,348.04c-0.81-13.2-11.81-23.55-25.04-23.55c-4,0-7.42-2.99-7.96-6.94c-0.08-0.59-0.08-1.56,0-2.14
				c0.54-3.96,3.96-6.95,7.97-6.95c4,0,7.42,2.99,7.96,6.94c0.16,1.21,1.14,2.09,2.34,2.09h12.35c0.67,0,1.29-0.27,1.74-0.75
				c0.46-0.49,0.69-1.13,0.64-1.78c-0.8-13.21-11.8-23.55-25.04-23.55c-13.24,0-24.24,10.34-25.04,23.54
				c-0.05,0.83-0.05,2.23,0,3.05c0.81,13.2,11.8,23.54,25.04,23.54c4,0,7.43,2.99,7.97,6.95c0.07,0.5,0.07,1.45,0,1.97
				c-0.54,3.96-3.97,6.95-7.97,6.95c-4,0-7.43-2.99-7.96-6.96c-0.17-1.18-1.17-2.08-2.34-2.08h-12.35c-0.67,0-1.29,0.27-1.73,0.74
				c-0.46,0.48-0.69,1.12-0.65,1.79c0.81,13.2,11.81,23.55,25.04,23.55c13.24,0,24.24-10.34,25.04-23.54
				C408.12,350.14,408.12,348.76,408.07,348.04z"/>
			<path class="st3" d="M377.74,288.64h10.59c1.49,0,2.7-1.3,2.7-2.9v-10.2c0-1.6-1.21-2.9-2.7-2.9h-10.59c-1.49,0-2.7,1.3-2.7,2.9
				v10.2C375.03,287.34,376.24,288.64,377.74,288.64z"/>
			<path class="st3" d="M388.33,378.12h-10.59c-1.49,0-2.7,1.3-2.7,2.9v10.2c0,1.6,1.21,2.9,2.7,2.9h10.59c1.49,0,2.7-1.3,2.7-2.9
				v-10.2C391.03,379.42,389.82,378.12,388.33,378.12z"/>
		</g>
	</g>
</g>
</svg>
