<?xml version="1.0" encoding="utf-8"?>
<!-- Generator: Adobe Illustrator 25.2.1, SVG Export Plug-In . SVG Version: 6.00 Build 0)  -->
<svg version="1.1" id="Layer_1" xmlns="http://www.w3.org/2000/svg" xmlns:xlink="http://www.w3.org/1999/xlink" x="0px" y="0px"
	 viewBox="0 0 500 500" style="enable-background:new 0 0 500 500;" xml:space="preserve">
<style type="text/css">
	.st0{fill:#051C2C;}
	.st1{fill:#8C9091;}
	.st2{fill:#D0B787;}
	.st3{fill:#003057;}
	.st4{fill:#1E43E7;}
	.st5{fill:#FF8CC5;}
	.st6{fill:#D6D1CA;}
	.st7{fill:#0040EC;}
	.st8{fill:#00A7EA;}
	.st9{fill:#FF3E59;}
	.st10{fill:#00AC66;}
	.st11{fill:#002154;}
	.st12{fill:#6BC4E8;}
	.st13{fill:#ECE8E5;}
	.st14{fill:none;stroke:#3C7DBD;stroke-width:1.2;stroke-linecap:round;stroke-miterlimit:10;}
	.st15{fill:none;stroke:#3C7DBD;stroke-width:1.25;stroke-linecap:round;stroke-miterlimit:10;}
	.st16{fill:none;stroke:#3C7DBD;stroke-width:2;stroke-linecap:round;stroke-miterlimit:10;}
	.st17{fill:none;stroke:#3C7DBD;stroke-width:2.07;stroke-linecap:round;stroke-miterlimit:10;}
	.st18{fill:none;stroke:#3C7DBD;stroke-width:1.75;stroke-linecap:round;stroke-miterlimit:10;}
	.st19{fill:#3C7DBD;}
	.st20{fill:none;stroke:#3C7DBD;stroke-width:1.5;stroke-linecap:round;stroke-miterlimit:10;}
	.st21{fill:none;stroke:#3C7DBD;stroke-width:1.5;stroke-miterlimit:10;}
	.st22{fill:none;stroke:#3C7DBD;stroke-width:1.75;stroke-miterlimit:10;}
	.st23{fill:none;stroke:#3C7DBD;stroke-linecap:round;stroke-miterlimit:10;}
	.st24{fill:none;}
	.st25{clip-path:url(#SVGID_2_);fill:#3C7DBD;}
	.st26{clip-path:url(#SVGID_4_);fill:#3C7DBD;}
	.st27{clip-path:url(#SVGID_6_);fill:#3C7DBD;}
	.st28{fill:#3C7EBF;}
	.st29{fill:none;stroke:#3C7DBD;stroke-width:2.65;stroke-linecap:round;stroke-linejoin:round;}
	.st30{clip-path:url(#SVGID_8_);fill:#3C7DBD;}
	.st31{fill:none;stroke:#3C7DBD;stroke-width:2;stroke-linecap:round;stroke-linejoin:round;stroke-miterlimit:10;}
	.st32{clip-path:url(#SVGID_10_);fill:#3C7DBD;}
	.st33{fill:#FF0000;}
	.st34{fill:#3C7DBD;stroke:#3C7DBD;stroke-width:0.5;stroke-miterlimit:10;}
	.st35{fill:#073352;}
	.st36{fill:#FF4351;}
	.st37{fill:#D9B785;}
	.st38{fill:#FFFFFF;}
	.st39{fill:#1E43E7;stroke:#1E43E7;stroke-width:10;stroke-miterlimit:10;}
	.st40{fill:#FF8CC5;stroke:#FF8CC5;stroke-width:10;stroke-miterlimit:10;}
	.st41{fill:#FF8CC5;stroke:#FF8CC5;stroke-width:2;stroke-miterlimit:10;}
	.st42{fill:none;stroke:#1E43E7;stroke-width:6;stroke-linejoin:round;stroke-miterlimit:10;}
	.st43{fill:#1E43E7;stroke:#1E43E7;stroke-width:2;stroke-miterlimit:10;}
	.st44{fill:none;stroke:#1E43E7;stroke-width:6;stroke-miterlimit:10;}
	.st45{fill:#003057;stroke:#003057;stroke-width:4;stroke-miterlimit:10;}
	.st46{fill:#00A7EA;stroke:#00A7EA;stroke-width:6;stroke-miterlimit:10;}
</style>
<g>
	<g>
		<path class="st8" d="M128.46,195.57c0-79.14,62.21-144.03,140.3-148.33c4.47-0.25,8.26,3.26,8.26,7.74v44
			c0,4.01-3.07,7.36-7.07,7.67c-45.89,3.62-82.13,42.12-82.13,88.92H128.46z"/>
	</g>
	<g>
		<path class="st3" d="M414.14,452.77H85.86c-3.65,0-6.61-2.96-6.61-6.61V181.82c0-3.65,2.96-6.61,6.61-6.61h328.27
			c3.65,0,6.61,2.96,6.61,6.61v264.33C420.75,449.81,417.79,452.77,414.14,452.77z M123.32,414.16h253.37
			c3.01,0,5.45-2.44,5.45-5.45V219.28c0-3.01-2.44-5.45-5.45-5.45H123.32c-3.01,0-5.45,2.44-5.45,5.45V408.7
			C117.86,411.72,120.3,414.16,123.32,414.16z"/>
	</g>
	<g>
		<path class="st8" d="M231.37,314.32c1.09,1.24,1.63,2.74,1.63,4.53c0,1.78-0.55,3.32-1.63,4.6c-1.09,1.29-2.62,1.88-4.6,1.78
			l-14.54-0.74l8.01,12.02c0.69,1.09,1.04,2.18,1.04,3.26c0,1.68-0.72,3.14-2.15,4.38c-1.43,1.24-3.04,1.85-4.82,1.85
			c-2.28,0-3.96-1.04-5.04-3.12l-6.53-12.91l-6.53,12.91c-1.19,2.18-2.87,3.26-5.05,3.26c-1.78,0-3.39-0.62-4.82-1.85
			c-1.43-1.24-2.15-2.69-2.15-4.38c0-1.19,0.34-2.27,1.04-3.26l8.01-12.17l-14.54,0.74c-1.98,0.1-3.51-0.47-4.6-1.71
			c-1.09-1.24-1.63-2.74-1.63-4.52c0-1.78,0.54-3.31,1.63-4.6c1.09-1.28,2.62-1.88,4.6-1.78l14.54,0.74l-8.01-12.02
			c-0.69-0.99-1.04-2.08-1.04-3.26c0-1.68,0.72-3.12,2.15-4.3c1.43-1.19,3.04-1.78,4.82-1.78c2.28,0,3.96,1.04,5.05,3.12l6.53,12.91
			l6.53-12.91c1.09-2.17,2.82-3.26,5.19-3.26c1.68,0,3.24,0.62,4.67,1.85c1.43,1.24,2.15,2.7,2.15,4.38c0,1.19-0.35,2.28-1.04,3.26
			l-8.01,12.02l14.54-0.74C228.75,312.51,230.28,313.08,231.37,314.32z"/>
		<path class="st8" d="M298.44,314.32c1.09,1.24,1.63,2.74,1.63,4.53c0,1.78-0.55,3.32-1.63,4.6c-1.09,1.29-2.62,1.88-4.6,1.78
			l-14.54-0.74l8.01,12.02c0.69,1.09,1.04,2.18,1.04,3.26c0,1.68-0.72,3.14-2.15,4.38c-1.43,1.24-3.04,1.85-4.82,1.85
			c-2.28,0-3.96-1.04-5.04-3.12l-6.53-12.91l-6.53,12.91c-1.19,2.18-2.87,3.26-5.05,3.26c-1.78,0-3.39-0.62-4.82-1.85
			c-1.43-1.24-2.15-2.69-2.15-4.38c0-1.19,0.34-2.27,1.04-3.26l8.01-12.17l-14.54,0.74c-1.98,0.1-3.51-0.47-4.6-1.71
			c-1.09-1.24-1.63-2.74-1.63-4.52c0-1.78,0.54-3.31,1.63-4.6c1.09-1.28,2.62-1.88,4.6-1.78l14.54,0.74l-8.01-12.02
			c-0.69-0.99-1.04-2.08-1.04-3.26c0-1.68,0.72-3.12,2.15-4.3c1.43-1.19,3.04-1.78,4.82-1.78c2.28,0,3.96,1.04,5.05,3.12l6.53,12.91
			l6.53-12.91c1.09-2.17,2.82-3.26,5.19-3.26c1.68,0,3.24,0.62,4.67,1.85c1.43,1.24,2.15,2.7,2.15,4.38c0,1.19-0.35,2.28-1.04,3.26
			l-8.01,12.02l14.54-0.74C295.82,312.51,297.35,313.08,298.44,314.32z"/>
		<path class="st8" d="M365.51,314.32c1.09,1.24,1.63,2.74,1.63,4.53c0,1.78-0.55,3.32-1.63,4.6c-1.09,1.29-2.62,1.88-4.6,1.78
			l-14.54-0.74l8.01,12.02c0.69,1.09,1.04,2.18,1.04,3.26c0,1.68-0.72,3.14-2.15,4.38c-1.43,1.24-3.04,1.85-4.82,1.85
			c-2.28,0-3.96-1.04-5.04-3.12l-6.53-12.91l-6.53,12.91c-1.19,2.18-2.87,3.26-5.05,3.26c-1.78,0-3.39-0.62-4.82-1.85
			c-1.43-1.24-2.15-2.69-2.15-4.38c0-1.19,0.34-2.27,1.04-3.26l8.01-12.17l-14.54,0.74c-1.98,0.1-3.51-0.47-4.6-1.71
			c-1.09-1.24-1.63-2.74-1.63-4.52c0-1.78,0.54-3.31,1.63-4.6c1.09-1.28,2.62-1.88,4.6-1.78l14.54,0.74l-8.01-12.02
			c-0.69-0.99-1.04-2.08-1.04-3.26c0-1.68,0.72-3.12,2.15-4.3c1.43-1.19,3.04-1.78,4.82-1.78c2.28,0,3.96,1.04,5.05,3.12l6.53,12.91
			l6.53-12.91c1.09-2.17,2.82-3.26,5.19-3.26c1.68,0,3.24,0.62,4.67,1.85c1.43,1.24,2.15,2.7,2.15,4.38c0,1.19-0.35,2.28-1.04,3.26
			l-8.01,12.02l14.54-0.74C362.88,312.51,364.42,313.08,365.51,314.32z"/>
	</g>
	<g>
		<path class="st3" d="M152.35,301.37h-39.82v-38.61h39.82c3.03,0,5.49,2.46,5.49,5.49v27.63
			C157.84,298.91,155.38,301.37,152.35,301.37z"/>
	</g>
	<g>
		<path class="st3" d="M152.35,373.61h-39.82V335h39.82c3.03,0,5.49,2.46,5.49,5.49v27.63
			C157.84,371.15,155.38,373.61,152.35,373.61z"/>
	</g>
</g>
</svg>
