<?xml version="1.0" encoding="utf-8"?>
<!-- Generator: Adobe Illustrator 22.0.0, SVG Export Plug-In . SVG Version: 6.00 Build 0)  -->
<svg version="1.1" id="Layer_1" xmlns="http://www.w3.org/2000/svg" xmlns:xlink="http://www.w3.org/1999/xlink" x="0px" y="0px"
	 viewBox="0 0 45 45" style="enable-background:new 0 0 45 45;" xml:space="preserve">
<style type="text/css">
	.st0{fill:#FFFFFF;}
</style>
<title>icon-twt</title>
<g id="Layer_2_1_">
	<g id="Layer_1-2">
		<path class="st0" d="M22.5,1.5c11.6,0,21,9.4,21,21s-9.4,21-21,21s-21-9.4-21-21S10.9,1.5,22.5,1.5 M22.5,0C10.1,0,0,10.1,0,22.5
			S10.1,45,22.5,45S45,34.9,45,22.5S34.9,0,22.5,0z"/>
	</g>
</g>
<path id="XMLID_7_" class="st0" d="M16.1,33.9V18.7h-4.7v15.2H16.1z M16.1,13.4c0-1.4-0.9-2.4-2.4-2.4c-1.5,0-2.4,1-2.4,2.4
	c0,1.3,0.9,2.4,2.4,2.4h0C15.2,15.7,16.1,14.7,16.1,13.4z M23.8,33.9v-8.6c0-0.5,0-0.9,0.2-1.3c0.4-0.9,1.2-1.9,2.6-1.9
	c1.9,0,3,1.1,3,3.1v8.6h4.7V25c0-4.7-2.5-7-5.9-7c-2.8,0-4,1.6-4.7,2.6l0-2h-4.7c0.1,1.5,0,15.2,0,15.2H23.8z"/>
</svg>
