<svg xmlns="http://www.w3.org/2000/svg" viewBox="0 0 45 45"><defs><style>.cls-1{fill:#fff;}</style></defs><title>icon-twt</title><g id="Layer_2" data-name="Layer 2"><g id="Layer_1-2" data-name="Layer 1"><path class="cls-1" d="M35.5,15.87a9.65,9.65,0,0,1-2.83.8,5.07,5.07,0,0,0,2.17-2.8,9.66,9.66,0,0,1-3.13,1.23,4.86,4.86,0,0,0-3.59-1.59,5,5,0,0,0-4.92,5,5.37,5.37,0,0,0,.13,1.15,13.86,13.86,0,0,1-10.15-5.28,5.14,5.14,0,0,0,1.52,6.74,4.75,4.75,0,0,1-2.23-.63v.06a5,5,0,0,0,3.95,5,5,5,0,0,1-1.3.17,4.85,4.85,0,0,1-.93-.09,5,5,0,0,0,4.6,3.51,9.74,9.74,0,0,1-6.12,2.16,10.3,10.3,0,0,1-1.17-.07,13.68,13.68,0,0,0,7.55,2.27c9.05,0,14-7.69,14-14.36v-.65a10.06,10.06,0,0,0,2.46-2.62Zm0,0"/><path class="cls-1" d="M22.5,1.5a21,21,0,1,1-21,21,21,21,0,0,1,21-21m0-1.5A22.5,22.5,0,1,0,45,22.5,22.5,22.5,0,0,0,22.5,0Z"/></g></g></svg>