<svg xmlns="http://www.w3.org/2000/svg" viewBox="0 0 45 45"><defs><style>.cls-1,.cls-2{fill:#fff;}.cls-2{fill-rule:evenodd;}</style></defs><title>icon-fb</title><g id="Layer_2" data-name="Layer 2"><g id="Layer_1-2" data-name="Layer 1"><path class="cls-1" d="M22.5,1.5a21,21,0,1,1-21,21,21,21,0,0,1,21-21m0-1.5A22.5,22.5,0,1,0,45,22.5,22.5,22.5,0,0,0,22.5,0Z"/><path class="cls-2" d="M25.77,16.54c.65,0,1.3,0,2,0H28V13.15c-.35,0-.71-.08-1.08-.1-.67,0-1.34-.06-2,0a4.94,4.94,0,0,0-2.84.87,4.23,4.23,0,0,0-1.71,2.83,9.89,9.89,0,0,0-.12,1.45c0,.76,0,1.52,0,2.28v.28H17V24.5h3.23V34h3.95V24.51H27.4c.17-1.26.33-2.5.5-3.8H24.15s0-1.87,0-2.69C24.21,16.92,24.88,16.58,25.77,16.54Z"/></g></g></svg>