<svg width="500" height="500" viewBox="0 0 500 500" fill="none" xmlns="http://www.w3.org/2000/svg">
<path d="M341.123 278.315C340.396 277.975 312.706 264.3 307.76 262.554C305.772 261.827 303.59 261.148 301.311 261.148C297.577 261.148 294.425 262.991 292 266.676C289.236 270.798 280.847 280.594 278.277 283.503C277.937 283.891 277.501 284.328 277.21 284.328C276.967 284.328 272.651 282.582 271.391 282C241.664 269.101 219.115 238.066 216.012 232.828C215.575 232.052 215.575 231.713 215.527 231.713C215.624 231.325 216.642 230.307 217.127 229.773C218.63 228.27 220.279 226.33 221.831 224.391C222.558 223.469 223.334 222.596 224.062 221.723C226.341 219.056 227.359 216.971 228.571 214.595L229.202 213.334C232.111 207.612 229.638 202.763 228.814 201.163C228.135 199.853 216.448 171.63 215.236 168.672C212.229 161.495 208.301 158.198 202.822 158.198C202.288 158.198 202.822 158.198 200.688 158.295C198.069 158.392 183.91 160.283 177.654 164.211C171.01 168.381 159.76 181.765 159.76 205.236C159.76 226.379 173.193 246.309 178.915 253.923C179.06 254.117 179.303 254.505 179.691 255.038C201.755 287.237 229.202 311.096 257.085 322.249C283.902 332.966 296.607 334.227 303.832 334.227C306.887 334.227 309.312 333.984 311.446 333.79L312.803 333.645C322.066 332.82 342.432 322.249 347.088 309.398C350.725 299.263 351.695 288.159 349.27 284.182C347.621 281.418 344.76 280.06 341.123 278.315Z" fill="#003057"/>
<path d="M253.303 60C150.401 60 66.7024 143.068 66.7024 245.242C66.7024 278.266 75.5281 310.611 92.3066 338.931L60.2529 433.492C59.671 435.237 60.1074 437.226 61.4167 438.535C62.3381 439.505 63.6474 440.038 64.9567 440.038C65.4416 440.038 65.975 439.941 66.46 439.796L165.046 408.469C192.008 422.872 222.51 430.485 253.4 430.485C356.301 430.485 440 347.417 440 245.291C439.903 143.068 356.204 60 253.303 60ZM253.303 391.836C224.256 391.836 196.13 383.447 171.98 367.59C171.156 367.056 170.235 366.765 169.265 366.765C168.78 366.765 168.246 366.862 167.761 367.008L118.396 382.72L134.35 335.682C134.883 334.178 134.592 332.481 133.671 331.172C115.244 306.004 105.545 276.278 105.545 245.194C105.545 164.357 171.835 98.5518 253.351 98.5518C334.868 98.5518 401.157 164.357 401.157 245.194C401.109 326.032 334.819 391.836 253.303 391.836Z" fill="#6BC4E8"/>
</svg>
