<?xml version="1.0" encoding="utf-8"?>
<!-- Generator: Adobe Illustrator 21.0.0, SVG Export Plug-In . SVG Version: 6.00 Build 0)  -->
<svg version="1.1" id="Layer_1" xmlns="http://www.w3.org/2000/svg" xmlns:xlink="http://www.w3.org/1999/xlink" x="0px" y="0px"
	 viewBox="0 0 45 45" style="enable-background:new 0 0 45 45;" xml:space="preserve">
<style type="text/css">
	.st0{fill:#FFFFFF;stroke:#FFFFFF;stroke-width:0.25;stroke-miterlimit:10;}
	.st1{fill:#FFFFFF;}
</style>
<title>icon-envelop</title>
<g id="Layer_2">
	<g id="Layer_1-2">
		<path class="st0" d="M34.3,23.3c0.3,0,0.5-0.2,0.5-0.5v-3.5c0-0.1-0.1-0.3-0.2-0.4l-4.6-4.1v-3.4c0-0.5-0.4-0.9-0.9-0.9h-4
			c-0.2-0.2-1.3-1.2-2.3-2.1c-0.2-0.2-0.4-0.2-0.6,0c-1,0.9-2.1,1.9-2.3,2.1H16c-0.5,0-0.9,0.4-0.9,0.9v3.4L10.4,19
			c-0.1,0.1-0.2,0.2-0.2,0.4v14.8c0,0.3,0.2,0.5,0.5,0.5h23.5c0.3,0,0.5-0.2,0.5-0.5V25c0-0.3-0.2-0.5-0.5-0.5
			c-0.3,0-0.5,0.2-0.5,0.5c0,0,0,0,0,0v8.1L25,25.7l8.8-5.5v2.7C33.8,23.1,34,23.3,34.3,23.3C34.2,23.3,34.2,23.3,34.3,23.3z
			 M21.3,10.6l1.2-1.1l1.2,1.1H21.3z M11.2,33.1v-13l8.8,5.5L11.2,33.1z M15.5,18.6c0.3,0,0.5-0.2,0.5-0.4c0,0,0,0,0,0v-6.6h13v10.6
			l-4.7,3l-1.5-1.3c-0.2-0.1-0.4-0.1-0.6,0L20.7,25L16,22v-1.8c0-0.3-0.2-0.5-0.5-0.5s-0.5,0.2-0.5,0.5v1.3l-3.6-2.2l3.6-3.2v2
			C15.1,18.3,15.3,18.6,15.5,18.6C15.5,18.6,15.5,18.6,15.5,18.6L15.5,18.6z M12,33.7l10.5-9l10.5,9H12z M29.9,21.5v-5.4l3.6,3.2
			L29.9,21.5z"/>
		<path class="st1" d="M22.5,1.5c11.6,0,21,9.4,21,21s-9.4,21-21,21s-21-9.4-21-21S10.9,1.5,22.5,1.5 M22.5,0C10.1,0,0,10.1,0,22.5
			S10.1,45,22.5,45S45,34.9,45,22.5S34.9,0,22.5,0z"/>
	</g>
</g>
</svg>
