<?xml version="1.0" encoding="utf-8"?>
<!-- Generator: Adobe Illustrator 25.2.1, SVG Export Plug-In . SVG Version: 6.00 Build 0)  -->
<svg version="1.1" id="Layer_1" xmlns="http://www.w3.org/2000/svg" xmlns:xlink="http://www.w3.org/1999/xlink" x="0px" y="0px"
	 viewBox="0 0 500 500" style="enable-background:new 0 0 500 500;" xml:space="preserve">
<style type="text/css">
	.st0{fill:#051C2C;}
	.st1{fill:#8C9091;}
	.st2{fill:#D0B787;}
	.st3{fill:white;}
	.st4{fill:#1E43E7;}
	.st5{fill:#FF8CC5;}
	.st6{fill:#D6D1CA;}
	.st7{fill:#0040EC;}
	.st8{fill:rgb(255,140,197);}
	.st9{fill:#FF3E59;}
	.st10{fill:#00AC66;}
	.st11{fill:#002154;}
	.st12{fill:#6BC4E8;}
	.st13{fill:#ECE8E5;}
	.st14{fill:none;stroke:#3C7DBD;stroke-width:1.2;stroke-linecap:round;stroke-miterlimit:10;}
	.st15{fill:none;stroke:#3C7DBD;stroke-width:1.25;stroke-linecap:round;stroke-miterlimit:10;}
	.st16{fill:none;stroke:#3C7DBD;stroke-width:2;stroke-linecap:round;stroke-miterlimit:10;}
	.st17{fill:none;stroke:#3C7DBD;stroke-width:2.07;stroke-linecap:round;stroke-miterlimit:10;}
	.st18{fill:none;stroke:#3C7DBD;stroke-width:1.75;stroke-linecap:round;stroke-miterlimit:10;}
	.st19{fill:#3C7DBD;}
	.st20{fill:none;stroke:#3C7DBD;stroke-width:1.5;stroke-linecap:round;stroke-miterlimit:10;}
	.st21{fill:none;stroke:#3C7DBD;stroke-width:1.5;stroke-miterlimit:10;}
	.st22{fill:none;stroke:#3C7DBD;stroke-width:1.75;stroke-miterlimit:10;}
	.st23{fill:none;stroke:#3C7DBD;stroke-linecap:round;stroke-miterlimit:10;}
	.st24{fill:none;}
	.st25{clip-path:url(#SVGID_2_);fill:#3C7DBD;}
	.st26{clip-path:url(#SVGID_4_);fill:#3C7DBD;}
	.st27{clip-path:url(#SVGID_6_);fill:#3C7DBD;}
	.st28{fill:#3C7EBF;}
	.st29{fill:none;stroke:#3C7DBD;stroke-width:2.65;stroke-linecap:round;stroke-linejoin:round;}
	.st30{clip-path:url(#SVGID_8_);fill:#3C7DBD;}
	.st31{fill:none;stroke:#3C7DBD;stroke-width:2;stroke-linecap:round;stroke-linejoin:round;stroke-miterlimit:10;}
	.st32{clip-path:url(#SVGID_10_);fill:#3C7DBD;}
	.st33{fill:#FF0000;}
	.st34{fill:#3C7DBD;stroke:#3C7DBD;stroke-width:0.5;stroke-miterlimit:10;}
	.st35{fill:#073352;}
	.st36{fill:#FF4351;}
	.st37{fill:#D9B785;}
	.st38{fill:#FFFFFF;}
	.st39{fill:#1E43E7;stroke:#1E43E7;stroke-width:10;stroke-miterlimit:10;}
	.st40{fill:#FF8CC5;stroke:#FF8CC5;stroke-width:10;stroke-miterlimit:10;}
	.st41{fill:#FF8CC5;stroke:#FF8CC5;stroke-width:2;stroke-miterlimit:10;}
	.st42{fill:none;stroke:#1E43E7;stroke-width:6;stroke-linejoin:round;stroke-miterlimit:10;}
	.st43{fill:#1E43E7;stroke:#1E43E7;stroke-width:2;stroke-miterlimit:10;}
	.st44{fill:none;stroke:#1E43E7;stroke-width:6;stroke-miterlimit:10;}
</style>
<g>
	<g>
		<path class="st3" d="M260.98,475.66c-5.29,5.65-14.2,5.81-19.69,0.35L122.47,357.8C80.86,321.12,57,268.38,57,213h38.66
			c0,44.45,19.23,86.78,52.75,116.13l0.9,0.84l98.17,97.67c2.08,2.06,5.43,2.06,7.5-0.01L357.5,325.12l11.31-13.62
			c22.92-27.6,35.54-62.58,35.54-98.51H443c0,31.51-7.77,62.45-22.3,90.03l-23.26,26.91L260.98,475.66z"/>
	</g>
	<g>
		<path class="st8" d="M443,213h-38.66c0-85.1-69.24-154.34-154.34-154.34C164.9,58.66,95.66,127.9,95.66,213H57
			c0-106.42,86.58-193,193-193S443,106.58,443,213z"/>
	</g>
	<g>
		<path class="st3" d="M250,284.37c-40.76,0-73.92-33.16-73.92-73.92c0-40.76,33.16-73.92,73.92-73.92
			c40.76,0,73.92,33.16,73.92,73.92C323.92,251.21,290.76,284.37,250,284.37z M250,175.18c-19.44,0-35.26,15.82-35.26,35.26
			c0,19.44,15.82,35.26,35.26,35.26c19.44,0,35.26-15.82,35.26-35.26C285.26,191,269.44,175.18,250,175.18z"/>
	</g>
</g>
</svg>
