<?xml version="1.0" encoding="utf-8"?>
<!-- Generator: Adobe Illustrator 25.2.1, SVG Export Plug-In . SVG Version: 6.00 Build 0)  -->
<svg version="1.1" id="Layer_1" xmlns="http://www.w3.org/2000/svg" xmlns:xlink="http://www.w3.org/1999/xlink" x="0px" y="0px"
	 viewBox="0 0 500 500" style="enable-background:new 0 0 500 500;" xml:space="preserve">
<style type="text/css">
	.st0{fill:#051C2C;}
	.st1{fill:#8C9091;}
	.st2{fill:#D0B787;}
	.st3{fill:#003057;}
	.st4{fill:#1E43E7;}
	.st5{fill:#FF8CC5;}
	.st6{fill:#D6D1CA;}
	.st7{fill:#0040EC;}
	.st8{fill:#00A7EA;}
	.st9{fill:#FF3E59;}
	.st10{fill:#00AC66;}
	.st11{fill:#002154;}
	.st12{fill:#6BC4E8;}
	.st13{fill:#ECE8E5;}
	.st14{fill:none;stroke:#3C7DBD;stroke-width:1.2;stroke-linecap:round;stroke-miterlimit:10;}
	.st15{fill:none;stroke:#3C7DBD;stroke-width:1.25;stroke-linecap:round;stroke-miterlimit:10;}
	.st16{fill:none;stroke:#3C7DBD;stroke-width:2;stroke-linecap:round;stroke-miterlimit:10;}
	.st17{fill:none;stroke:#3C7DBD;stroke-width:2.07;stroke-linecap:round;stroke-miterlimit:10;}
	.st18{fill:none;stroke:#3C7DBD;stroke-width:1.75;stroke-linecap:round;stroke-miterlimit:10;}
	.st19{fill:#3C7DBD;}
	.st20{fill:none;stroke:#3C7DBD;stroke-width:1.5;stroke-linecap:round;stroke-miterlimit:10;}
	.st21{fill:none;stroke:#3C7DBD;stroke-width:1.5;stroke-miterlimit:10;}
	.st22{fill:none;stroke:#3C7DBD;stroke-width:1.75;stroke-miterlimit:10;}
	.st23{fill:none;stroke:#3C7DBD;stroke-linecap:round;stroke-miterlimit:10;}
	.st24{fill:none;}
	.st25{clip-path:url(#SVGID_2_);fill:#3C7DBD;}
	.st26{clip-path:url(#SVGID_4_);fill:#3C7DBD;}
	.st27{clip-path:url(#SVGID_6_);fill:#3C7DBD;}
	.st28{fill:#3C7EBF;}
	.st29{fill:none;stroke:#3C7DBD;stroke-width:2.65;stroke-linecap:round;stroke-linejoin:round;}
	.st30{clip-path:url(#SVGID_8_);fill:#3C7DBD;}
	.st31{fill:none;stroke:#3C7DBD;stroke-width:2;stroke-linecap:round;stroke-linejoin:round;stroke-miterlimit:10;}
	.st32{clip-path:url(#SVGID_10_);fill:#3C7DBD;}
	.st33{fill:#FF0000;}
	.st34{fill:#3C7DBD;stroke:#3C7DBD;stroke-width:0.5;stroke-miterlimit:10;}
	.st35{fill:#073352;}
	.st36{fill:#FF4351;}
	.st37{fill:#D9B785;}
	.st38{fill:#FFFFFF;}
	.st39{fill:#1E43E7;stroke:#1E43E7;stroke-width:10;stroke-miterlimit:10;}
	.st40{fill:#FF8CC5;stroke:#FF8CC5;stroke-width:10;stroke-miterlimit:10;}
	.st41{fill:#FF8CC5;stroke:#FF8CC5;stroke-width:2;stroke-miterlimit:10;}
	.st42{fill:none;stroke:#1E43E7;stroke-width:6;stroke-linejoin:round;stroke-miterlimit:10;}
	.st43{fill:#1E43E7;stroke:#1E43E7;stroke-width:2;stroke-miterlimit:10;}
	.st44{fill:none;stroke:#1E43E7;stroke-width:6;stroke-miterlimit:10;}
</style>
<g>
	<path class="st3" d="M250,353.74c31.93,0,58.47-24.95,60.41-56.8c0.12-1.87,0.12-5.25,0.01-6.95c-1.95-31.86-28.49-56.8-60.42-56.8
		c-13.1,0-24.31-9.78-26.07-22.75c-0.27-2.01-0.27-5.03,0-7.02c1.77-12.98,12.98-22.76,26.08-22.76c13.09,0,24.31,9.78,26.07,22.75
		c0.07,0.55,0.46,0.93,0.93,0.93h32.39c0.3,0,0.55-0.11,0.74-0.32c0.2-0.21,0.29-0.48,0.27-0.77
		c-1.94-31.86-28.48-56.81-60.41-56.81c-31.94,0-58.48,24.95-60.42,56.8c-0.12,1.96-0.12,5.4,0,7.37
		c1.94,31.85,28.48,56.8,60.41,56.8c13.11,0,24.32,9.78,26.07,22.75c0.25,1.77,0.25,4.74,0,6.6c-1.77,12.98-12.98,22.76-26.08,22.76
		c-13.11,0-24.32-9.78-26.07-22.76c-0.07-0.53-0.47-0.92-0.94-0.92H190.6c-0.29,0-0.55,0.11-0.74,0.32
		c-0.2,0.21-0.29,0.48-0.27,0.77C191.52,328.78,218.06,353.74,250,353.74z"/>
	<g>
		<path class="st3" d="M263.89,128.69h-27.77c-1.02,0-1.85-1.06-1.85-2.36V99.59c0-1.3,0.83-2.36,1.85-2.36h27.77
			c1.02,0,1.85,1.06,1.85,2.36v26.74C265.73,127.64,264.91,128.69,263.89,128.69z"/>
	</g>
	<g>
		<path class="st3" d="M263.89,405.21h-27.77c-1.02,0-1.85-1.06-1.85-2.36v-26.74c0-1.3,0.83-2.36,1.85-2.36h27.77
			c1.02,0,1.85,1.06,1.85,2.36v26.74C265.73,404.16,264.91,405.21,263.89,405.21z"/>
	</g>
	<path class="st8" d="M61.76,250.35c0-103.96,84.28-188.24,188.24-188.24V20C123.18,20,20,123.18,20,250
		c0,126.82,103.18,230,230,230v-41.41C146.04,438.59,61.76,354.32,61.76,250.35z"/>
	<path class="st3" d="M250,20v42.11c103.96,0,188.24,84.28,188.24,188.24c0,103.96-84.28,188.24-188.24,188.24V480
		c126.82,0,230-103.18,230-230C480,123.18,376.82,20,250,20z"/>
</g>
</svg>
