<svg width="2818" height="627" viewBox="0 0 2818 627" fill="none" xmlns="http://www.w3.org/2000/svg">
<path d="M488.58 170.81C320.91 170.81 182.08 300.55 172.54 466.16C172.28 470.31 173.78 474.29 176.67 477.32C179.56 480.38 183.64 482.11 187.87 482.11H299.52C307.44 482.11 313.99 476.07 314.74 468.06C323.18 378.75 397.9 311.43 488.58 311.43C579.23 311.43 653.93 378.75 662.34 468.06C663.11 476.07 669.67 482.11 677.62 482.11H789.19C793.4 482.11 797.5 480.38 800.39 477.32C803.28 474.29 804.78 470.32 804.52 466.16C794.97 300.55 656.19 170.81 488.58 170.81Z" fill="white"/>
<path d="M488.58 342.12C409.42 342.12 344.96 405.94 344.96 484.35C344.96 562.83 409.42 626.67 488.58 626.67C567.74 626.67 632.15 562.83 632.15 484.35C632.14 405.95 567.74 342.12 488.58 342.12Z" fill="white"/>
<path d="M488.58 0C361.16 0 240.56 48.3 148.95 135.97C57.5601 223.43 4.66013 340.75 0.0101276 466.25C-0.139872 470.47 1.38013 474.45 4.32013 477.46C7.24013 480.48 11.1601 482.11 15.3401 482.11H126.19C134.34 482.11 141.05 475.79 141.44 467.71C150.24 283.96 302.74 140.03 488.57 140.03C674.35 140.03 826.83 283.96 835.68 467.71C836.04 475.79 842.75 482.11 850.9 482.11H961.75C965.93 482.11 969.85 480.46 972.79 477.46C975.71 474.45 977.23 470.47 977.07 466.25C972.43 340.74 919.53 223.43 828.19 135.97C736.54 48.3 615.94 0 488.58 0Z" fill="white"/>
<path d="M1553.25 61.21H1426.01C1424.15 61.21 1422.55 62.46 1422.09 64.24L1342.54 374.09H1341.46L1264.93 64.27C1264.49 62.46 1262.84 61.21 1260.98 61.21H1128.4C1126.28 61.21 1124.5 62.85 1124.38 64.96L1096.97 473.72C1096.87 474.82 1097.28 475.91 1098.03 476.72C1098.83 477.53 1099.89 477.99 1101 477.99H1169.69C1171.86 477.99 1173.61 476.34 1173.77 474.22L1193.77 133.75H1194.47L1285.04 475C1285.51 476.77 1287.13 477.99 1288.96 477.99H1383.76C1385.56 477.99 1387.17 476.78 1387.63 475.05L1481.35 133.75H1481.94L1496.65 474.15C1496.73 476.3 1498.53 477.99 1500.7 477.99H1580.69C1581.83 477.99 1582.91 477.54 1583.66 476.72C1584.43 475.91 1584.82 474.81 1584.77 473.72L1557.31 64.96C1557.15 62.85 1555.39 61.21 1553.25 61.21Z" fill="white"/>
<path d="M1758.39 156.98C1725.59 156.98 1675.22 162.14 1648.42 168.2C1646.59 168.61 1645.27 170.25 1645.27 172.12V229.97C1645.27 231.18 1645.84 232.34 1646.79 233.12C1647.75 233.87 1649.01 234.19 1650.2 233.89C1668.57 229.79 1711.02 222.85 1753.67 222.85C1824.11 222.85 1826.15 239.66 1826.2 284.28L1820.03 284.25C1756.32 284.24 1684.25 284 1647.66 320.19C1632.39 335.29 1624.64 355.76 1624.64 381.1C1624.64 469.99 1695.11 483.28 1771.26 484.39C1778.23 484.57 1785.14 484.67 1792.11 484.67C1827.72 484.67 1864.83 482.24 1914.39 476.8C1916.45 476.57 1918.03 474.86 1918.03 472.8V263.18C1918.03 232.13 1909.18 207.72 1891.76 190.58C1861.01 160.36 1809.45 156.67 1758.39 156.98ZM1826.2 345.3V420.28C1810.28 422.37 1797.17 423.25 1781.89 423.25C1745.97 423.25 1720.58 420.45 1720.58 384.08C1720.58 347.66 1745.97 344.86 1781.89 344.86C1803.05 344.86 1817.91 345.01 1826.2 345.3Z" fill="white"/>
<path d="M2226.9 411.07L2221.51 411.79C2206.52 413.78 2192.38 415.67 2167.92 415.67C2087.47 415.67 2054.64 387.73 2054.64 319.26C2054.64 251.13 2086.4 224.59 2167.92 224.59C2186.24 224.59 2202.55 226.06 2224.64 228.61C2225.77 228.7 2226.91 228.36 2227.79 227.6C2228.67 226.84 2229.16 225.77 2229.16 224.61V169.76C2229.16 167.89 2227.84 166.25 2225.99 165.85C2199.62 159.98 2169.17 156.97 2135.52 156.97C2013.47 156.97 1958.84 236.43 1958.84 315.16C1958.84 421.15 2026.21 484.39 2139.08 484.39C2172.78 484.39 2201.16 481.2 2228.41 474.38C2230.21 473.91 2231.5 472.32 2231.5 470.47V415.06C2231.5 413.87 2230.98 412.79 2230.11 412.04C2229.22 411.29 2228.03 410.91 2226.9 411.07Z" fill="white"/>
<path d="M2480.67 165.11C2480.67 162.9 2478.84 161.11 2476.62 161.11L2471.1 161.09C2443.52 160.88 2409.43 160.76 2359.86 188.51V167.47C2359.86 165.28 2358.03 163.47 2355.78 163.47H2281.6C2279.38 163.47 2277.55 165.28 2277.55 167.47V473.99C2277.55 476.23 2279.38 478.03 2281.6 478.03H2365.25C2367.52 478.03 2369.3 476.24 2369.3 473.99V254.83C2397.04 236.66 2442.04 236.91 2471.92 236.82H2476.62C2478.84 236.82 2480.67 235.04 2480.67 232.81V165.11Z" fill="white"/>
<path d="M2649.51 156.42C2545.21 156.42 2480.44 219.25 2480.44 320.44C2480.44 421.58 2545.21 484.42 2649.51 484.42C2748.34 484.42 2817.33 416.98 2817.33 320.44C2817.33 219.25 2753.03 156.42 2649.51 156.42ZM2721.96 321.58C2721.96 391.74 2700.8 420.38 2648.94 420.38C2596.53 420.38 2575.17 391.74 2575.17 321.58C2575.17 251.01 2596.54 222.24 2648.94 222.24C2700.8 222.24 2721.96 251.01 2721.96 321.58Z" fill="white"/>
</svg>
