<?xml version="1.0" encoding="utf-8"?>
<!-- Generator: Adobe Illustrator 21.0.2, SVG Export Plug-In . SVG Version: 6.00 Build 0)  -->
<svg version="1.1" id="Layer_1" xmlns="http://www.w3.org/2000/svg" xmlns:xlink="http://www.w3.org/1999/xlink" x="0px" y="0px"
	 viewBox="0 0 45 45" style="enable-background:new 0 0 45 45;" xml:space="preserve">
<style type="text/css">
	.st0{fill:#FFFFFF;}
</style>
<g id="Layer_2">
	<g id="Layer_1-2">
		<path class="st0" d="M22.5,1.5c11.6,0,21,9.4,21,21s-9.4,21-21,21s-21-9.4-21-21S10.9,1.5,22.5,1.5 M22.5,0C10.1,0,0,10.1,0,22.5
			S10.1,45,22.5,45S45,34.9,45,22.5S34.9,0,22.5,0z"/>
	</g>
</g>
<g>
	<path d="M22.5,8.6L22.5,8.6c-7.1,0-12.9,5.8-12.9,12.9c0,2.6,0.8,5,2.1,7.1l-1.4,4.8c-0.1,0.3,0.1,0.6,0.4,0.7c0.1,0,0.2,0,0.4,0
		l4.7-1.6c2,1.2,4.3,1.9,6.7,1.9c7.1,0,12.9-5.8,12.9-12.9C35.4,14.4,29.6,8.6,22.5,8.6z M29.2,25.8c-0.4,1.1-0.8,1.9-1.6,2.4
		c-0.8,0.4-1.8,0.5-2.7,0.3C23,28,21,26.7,19.4,25c-1.7-1.7-3-3.7-3.3-5.6c-0.2-0.9-0.1-1.9,0.3-2.7c0.4-0.8,1.2-1.4,2.3-1.7
		c0,0,0.1,0,0.1,0v0c0,0,0,0,0,0c0.2,0,0.3,0.1,0.4,0.2l2.2,3.7c0,0,0,0,0,0l0,0c0,0,0,0,0,0.1c0,0,0,0,0,0c0,0,0,0.1,0,0.1
		c0,0,0,0,0,0c0,0,0,0,0,0c0,0,0,0,0,0c0,0,0,0,0,0c0,0,0,0,0,0c0,0,0,0,0,0c0,0,0,0,0,0c0,0,0,0,0,0c0,0,0,0,0,0c0,0,0,0,0,0
		c0,0,0,0,0,0c0,0,0,0,0,0c0,0,0,0,0,0c0,0,0,0,0,0c0,0,0,0,0,0c0,0,0,0,0,0c0,0,0,0,0,0c0,0,0,0,0,0c0,0,0,0,0,0c0,0,0,0,0,0
		c0,0,0,0,0,0l-0.7,0.7c1,1.6,2.1,2.8,3.5,3.6L25,23c0,0,0,0,0.1-0.1c0,0,0,0,0,0c0,0,0,0,0,0c0,0,0.1,0,0.1,0c0.1,0,0.2-0.1,0.2,0
		c0,0,0,0,0,0c0,0,0,0,0,0c0,0,0,0,0,0c0.1,0,0.1,0,0.2,0.1c0,0,0,0,0.1,0l0,0l3.6,2.3C29.5,25.3,29.3,25.5,29.2,25.8z"/>
</g>
</svg>
